<?xml version="1.0" encoding="iso-8859-1"?>
<!-- Uploaded to: SVG Repo, www.svgrepo.com, Generator: SVG Repo Mixer Tools -->
<svg height="800px" width="800px" version="1.1" id="Layer_1" xmlns="http://www.w3.org/2000/svg" xmlns:xlink="http://www.w3.org/1999/xlink" 
	 viewBox="0 0 480.009 480.009" xml:space="preserve">
<g transform="translate(0 -1020.36)" shape-rendering="auto" image-rendering="auto" color-rendering="auto" color-interpolation="sRGB">
	<g>
		<path style="fill:#464C63;" d="M54.284,1252.412c-21.048,0-38.315,17.205-38.282,38.252v33.781
			c0.011,2.898,1.589,5.564,4.125,6.969c0,0,2.45,1.313,3.906,2.094v142.846h431.938v-142.846c1.467-0.783,3.907-2.094,3.907-2.094
			c2.536-1.404,4.114-4.07,4.125-6.969v-33.781c0.032-21.047-17.234-38.252-38.282-38.252H54.284z"/>
		<path style="fill:#CBDB2E;" d="M54.284,1268.35h371.437c12.394,0,22.363,9.924,22.344,22.314l-0.125,28.844
			c-2.778,1.52-8.37,4.703-19.125,9.438c-13.072,5.756-29.363,11.279-38.75,11.471c-10.883,0.24-21.709-4.965-33.781-11
			c-12.074-6.041-25.408-13.002-41.219-13.002c-15.757,0-29,6.895-41.094,12.875c-12.093,5.98-23.046,11.127-34.03,11.127
			c-10.984,0-21.813-5.146-33.907-11.127c-12.093-5.98-25.336-12.875-41.093-12.875c-15.811,0-29.147,6.961-41.219,13.002
			c-12.072,6.039-22.898,11.221-33.781,11c-9.387-0.176-25.646-5.715-38.718-11.471c-10.757-4.734-16.379-7.924-19.157-9.438
			l-0.125-28.844C31.921,1278.276,41.889,1268.35,54.284,1268.35L54.284,1268.35z"/>
		<path style="fill:#82DD47;" d="M164.94,1332.475c10.984,0,21.813,5.146,33.906,11.125c12.093,5.98,25.338,12.748,41.094,12.748
			s29-6.768,41.093-12.748c12.094-5.98,23.048-11.125,34.032-11.125c10.93,0,21.885,5.285,34,11.342
			c12.115,6.061,25.494,12.854,41.344,12.531c14.442-0.305,31.074-6.66,44.906-12.748c1.867-0.816,2.984-1.439,4.718-2.25v119.063
			H39.971v-119.094c1.749,0.816,2.869,1.455,4.75,2.279c13.832,6.09,30.434,12.455,44.875,12.75
			c15.85,0.305,29.229-6.471,41.344-12.533c12.115-6.059,23.07-11.342,34-11.342L164.94,1332.475z"/>
		<path style="fill:#464C63;" d="M8.129,1460.368c-4.418-0.063-8.051,3.469-8.113,7.887c-0.062,4.418,3.469,8.051,7.887,8.113
			c0.075,0.002,0.151,0.002,0.226,0h463.75c4.418,0.063,8.051-3.469,8.113-7.887c0.062-4.418-3.469-8.051-7.887-8.113
			c-0.075-0.002-0.151-0.002-0.226,0H8.129z"/>
	</g>
	<path style="fill:#464C63;" d="M215.254,1164.381c-4.117,0.412-7.241,3.895-7.205,8.031v87.992
		c-0.017,4.396,3.517,7.982,7.913,8.031h48.071c4.396-0.049,7.93-3.635,7.913-8.031v-87.992c0.017-4.396-3.517-7.982-7.913-8.031
		h-48.071C215.727,1164.371,215.49,1164.371,215.254,1164.381L215.254,1164.381z"/>
	<path style="fill:#FCD116;" d="M223.994,1180.327h32.008v72.047h-32.008V1180.327z"/>
	<path style="fill:#464C63;" d="M240.057,1092.334c-2.529,0.033-4.895,1.26-6.378,3.309c0,0-0.446,0.801-0.472,0.832
		c-0.475,0.656-4.64,6.359-8.976,14.527c-4.578,8.623-9.821,18.844-7.795,30c0.946,5.207,3.083,10.479,6.85,15
		c3.768,4.523,9.765,8.387,16.89,8.387c13.032,0,23.765-9.898,23.858-22.324c0.04-5.326-1.909-9.508-4.016-13.699
		c-2.107-4.191-4.722-8.334-6.969-12.166c-2.247-3.834-4.174-7.447-5.079-9.92c-0.904-2.473-0.256-2.891-0.827-1.889
		c2.239-3.809,0.966-8.713-2.843-10.951c-1.284-0.756-2.754-1.137-4.243-1.102L240.057,1092.334z"/>
	<path style="fill:#FF883E;" d="M237.577,1120.916c0.632,1.119,1.124,2.322,1.772,3.424c2.36,4.027,5.353,7.563,7.003,10.846
		c1.65,3.283,1.56,6.68,1.557,7.064c-0.018,2.328-3.268,6.184-7.733,6.184c-1.623,0-3.876-1.039-5.488-2.965
		c-1.612-1.934-2.505-4.73-2.543-7.309C232.054,1132.135,234.413,1127.756,237.577,1120.916z"/>
	<path style="fill:#D6B31E;" d="M224.003,1180.319v72.063h7.157v-72.063H224.003z"/>
	<path style="fill:#D8793E;" d="M237.567,1120.877c-1.413,3.055-2.834,6.241-4,9.125c-0.932,2.635-1.481,5.183-1.437,8.125
		c0.038,2.579,0.951,5.378,2.563,7.313c1.603,1.915,3.817,2.958,5.437,2.969h0.062c0.158-0.001,0.283-0.084,0.437-0.094
		c0.812-0.068,1.592-0.235,2.313-0.531c-0.768-0.432-1.519-1.057-2.375-2.094c-1.611-1.936-3.331-4.786-3.563-7.563
		c-0.345-4.141,1.313-6.802,3.375-12c-0.384-0.64-0.663-1.168-1.031-1.813C238.692,1123.211,238.197,1121.996,237.567,1120.877
		L237.567,1120.877z"/>
	<path style="fill:#464C63;" d="M410.067,1045.18c-7.593,1.99-13.179,7.253-16.594,13.719c-5.283-5.298-12.691-6.073-20.219-4.093
		c-7.064,1.887-12.021,6.945-15.313,12.593c-3.291,5.648-5.164,12.205-4.063,19c1.633,10.066,9.165,16.23,16.063,20.844
		c-6.95,0.816-15.095,2.631-20.344,9.875c-7.935,10.91-7.793,27.068,2.75,37.531c5.066,5.027,11.738,7.598,18.406,7.719
		c0.146,6.625,2.681,13.252,7.719,18.252c10.209,10.135,26.884,10.414,37.063,0.367c4.513-4.494,6.878-10.459,7.344-16.531
		c3.489,5.068,8.602,9.057,14.813,10.75c13.845,3.738,28.311-4.678,32-18.563c1.821-6.848,0.613-13.811-2.625-19.594
		c5.669-3.395,10.185-8.826,12-15.656c3.814-14.35-4.396-28.301-16.719-33.813c-8.261-3.695-15.912-0.656-22.656,2.063
		c0.3-0.592,0.652-1.088,0.937-1.688c3.407-7.146,5.664-16.066,2.156-25c-2.325-5.92-6.635-10.965-12.281-14.437
		C423.347,1044.045,416.261,1043.622,410.067,1045.18L410.067,1045.18z"/>
	<path style="fill:#2ECC71;" d="M414.129,1060.681c2.692-0.704,5.355-0.16,8,1.472c2.645,1.625,4.9,4.41,5.781,6.656
		c1.472,3.748,0.841,6.881-1.719,12.25c-2.56,5.367-7.105,11.943-11.063,19.875c-1.979,3.951-0.381,8.758,3.57,10.736
		c1.465,0.734,3.121,1.002,4.743,0.764c7.662-1.119,13.314-5.174,19.375-7.811c6.061-2.639,10.876-3.389,13-2.438
		c4.52,2.021,9.141,9.979,7.781,15.094c-1.485,5.588-6.904,8.688-12.344,7.219c-4.269-1.158-8.668,1.363-9.827,5.633
		c-1.158,4.268,1.363,8.668,5.632,9.826c0.013,0.002,0.026,0.006,0.038,0.01c5.445,1.473,8.611,6.941,7.125,12.531
		c-1.481,5.572-6.868,8.672-12.313,7.219c-2.306-0.623-4.409-2.129-5.938-4.377c-4.286-6.307-7.467-11.186-12.969-19.469
		c-2.443-3.682-7.408-4.686-11.09-2.242c-2.109,1.398-3.432,3.715-3.566,6.242c-0.528,9.863-0.796,15.635-1.281,23.188
		c-0.17,2.66-1.182,4.908-2.813,6.533c-3.874,3.793-10.28,3.814-14.5-0.385c-4.235-4.203-4.223-10.361-0.344-14.219
		c3.057-3.191,2.949-8.256-0.242-11.313c-3.083-2.953-7.941-2.967-11.039-0.029c-3.867,3.83-10.298,3.826-14.531-0.385
		c-3.893-3.863-3.858-12.936-1.063-16.781c0.011,0,0.021,0,0.032,0c1.835-2.533,4.276-3.305,10.063-3.873
		c5.787-0.576,13.758-0.32,22.375-2.721c4.261-1.172,6.766-5.574,5.595-9.836c-0.462-1.68-1.461-3.166-2.845-4.227
		c-5.87-4.545-13.013-7.777-18.688-11.531s-8.864-7.314-9.375-10.469c-0.299-1.844,0.362-5.455,2.063-8.375
		c1.701-2.918,4.211-4.842,5.625-5.219c2.787-0.736,4.37-0.592,6.438,0.496c2.067,1.088,4.843,3.621,7.844,8.781
		c2.24,3.809,7.144,5.08,10.953,2.84c3.1-1.824,4.602-5.49,3.672-8.965c-1.505-5.49,1.747-11.122,7.844-12.719L414.129,1060.681z"/>
	<g>
		<path style="fill:#464C63;" d="M438.911,1180.368l-13.781,8.156c0,0,1.925,3.277,3.781,7.406s3.11,9.502,3.063,10.125
			c-0.17,2.236-3.398,9.631-7,15.25c-3.602,5.619-7.125,9.969-7.125,9.969l12.438,10.031c0,0,4.029-4.934,8.156-11.375
			c4.128-6.439,8.831-13.881,9.5-22.656c0.545-7.164-2.176-12.873-4.438-17.906S438.911,1180.368,438.911,1180.368z"/>
		<path style="fill:#464C63;" d="M439.661,1198.555c-4.109,0.152-7.433,3.396-7.688,7.5c-0.17,2.236-3.398,9.631-7,15.25
			c-3.602,5.619-7.125,9.969-7.125,9.969c-2.954,3.285-2.685,8.344,0.601,11.299s8.345,2.686,11.299-0.602
			c0.191-0.211,0.371-0.434,0.538-0.666c0,0,4.029-4.934,8.156-11.375c4.128-6.439,8.831-13.881,9.5-22.656
			c0.401-4.4-2.841-8.293-7.242-8.693c-0.346-0.031-0.693-0.041-1.039-0.027V1198.555z"/>
	</g>
	<path style="fill:#31AF66;" d="M418.127,1060.536c-1.344-0.24-2.685-0.192-4.03,0.16c-6.096,1.6-9.286,7.134-7.782,12.626
		c1.15,4.279-1.387,8.68-5.666,9.83c-0.017,0.004-0.035,0.01-0.052,0.014c4.276,1.16,8.684-1.367,9.843-5.643
		c0.373-1.377,0.373-2.826,0-4.201c-1.504-5.49,1.686-11.027,7.782-12.626c0.16,0,0.192,0,0.272,0c-0.16,0-0.24-0.16-0.368-0.16
		H418.127z M381.846,1069.944c-1.424-0.176-2.944-0.16-4.469,0.32h-0.16c-2.645,0.721-4.618,2.443-6.03,5.063
		c-1.44,2.65-1.914,6.141-1.536,8.5c0.512,3.154,3.763,6.775,9.437,10.531c5.674,3.754,12.818,6.896,18.688,11.438
		c3.495,2.703,4.137,7.729,1.434,11.223c-1.076,1.393-2.579,2.389-4.279,2.84c-8.616,2.412-16.525,2.174-22.312,2.719
		c-5.787,0.576-8.227,1.377-10.062,3.906c-0.053,0-0.107,0-0.16,0c-2.795,3.844-2.706,12.916,1.184,16.783
		c2.747,2.73,6.334,3.494,9.594,2.781c-1.95-0.4-3.867-1.184-5.469-2.781c-3.893-3.865-3.982-12.939-1.184-16.783
		c0.053,0,0.107,0,0.16,0c1.835-2.533,4.275-3.332,10.062-3.906c5.787-0.545,13.696-0.305,22.312-2.719
		c4.271-1.133,6.816-5.512,5.684-9.783c-0.45-1.699-1.448-3.203-2.839-4.279c-5.87-4.543-13.013-7.686-18.688-11.438
		c-5.674-3.756-8.926-7.377-9.437-10.531c-0.384-2.359,0.16-5.85,1.536-8.5c1.408-2.619,3.386-4.344,6.03-5.063h0.16
		c0.368-0.16,0.704-0.004,1.056,0c-0.256,0-0.464-0.225-0.72-0.256L381.846,1069.944z M450.783,1102.037
		c-2.224,0.4-4.938,1.279-7.968,2.594c-5.808,2.527-11.285,6.264-18.469,7.563c1.046,0.293,2.141,0.369,3.218,0.225
		c7.664-1.119,13.315-5.145,19.376-7.781c2.923-1.279,5.507-2.076,7.688-2.5c-1.04-0.207-2.134-0.416-3.845-0.16V1102.037z
		 M453.033,1124.194c-0.581,0.027-1.157,0.119-1.718,0.271c1.619,0.432,3.182,0.352,4.688,0c-0.192,0-0.368,0-0.56,0
		c-0.784-0.211-1.595-0.303-2.406-0.271H453.033z M420.284,1132.348c-0.666,0.014-1.328,0.109-1.97,0.287
		c1.907,0.494,3.565,1.674,4.656,3.313c5.502,8.281,8.683,13.035,12.97,19.344c1.52,2.244,3.6,3.871,5.906,4.5
		c1.6,0.432,3.158,0.352,4.656,0c-0.176,0-0.352,0-0.528,0c-2.306-0.623-4.378-2.258-5.906-4.5
		c-4.286-6.309-7.467-11.063-12.97-19.344c-1.507-2.283-4.076-3.639-6.811-3.594L420.284,1132.348z M387.564,1141.286
		c-0.58,0.023-1.156,0.109-1.718,0.256c4.299,1.152,6.85,5.572,5.697,9.871c-0.372,1.389-1.109,2.652-2.134,3.66
		c-3.877,3.857-3.861,9.953,0.368,14.156c2.742,2.729,6.363,3.523,9.656,2.813c-1.987-0.4-3.918-1.199-5.531-2.813
		c-4.235-4.203-4.251-10.299-0.368-14.156c3.163-3.131,3.189-8.234,0.057-11.398c-1.587-1.602-3.773-2.467-6.027-2.383V1141.286z"/>
	<path style="fill:#464C63;" d="M69.942,1045.18c-7.464-1.953-14.822-0.16-20.469,3.344c-5.647,3.472-9.956,8.517-12.281,14.438
		c-3.508,8.934-1.22,17.854,2.188,25c0.286,0.592,0.638,1.104,0.938,1.688c-6.744-2.711-14.395-5.758-22.656-2.063
		c-12.322,5.512-20.533,19.465-16.719,33.813c1.811,6.814,6.318,12.229,11.969,15.623c-3.25,5.789-4.417,12.766-2.594,19.625
		c3.689,13.885,18.123,22.303,31.969,18.563h0.031c6.21-1.693,11.324-5.682,14.813-10.75c0.465,6.072,2.799,12.037,7.312,16.531
		h0.031c10.178,10.039,26.822,9.758,37.031-0.367c5.038-5,7.605-11.625,7.75-18.252c6.669-0.16,13.34-2.691,18.406-7.719
		c10.543-10.463,10.685-26.621,2.75-37.531c-5.249-7.244-13.393-9.061-20.344-9.875c6.898-4.613,14.43-10.775,16.063-20.844
		c1.102-6.795-0.771-13.352-4.063-19s-8.248-10.707-15.313-12.594c-8.633-2.431-15.151-0.336-20.25,4.125
		c-3.412-6.479-8.958-11.759-16.563-13.75L69.942,1045.18z"/>
	<path style="fill:#2ECC71;" d="M65.879,1060.681c6.096,1.6,9.349,7.229,7.844,12.718c-1.142,4.268,1.392,8.654,5.66,9.797
		c3.474,0.93,7.141-0.572,8.965-3.672c3.001-5.16,5.776-7.693,7.844-8.781s3.65-1.248,6.438-0.496
		c1.414,0.385,3.924,2.301,5.625,5.219s2.361,6.531,2.063,8.375c-0.511,3.154-3.732,6.715-9.406,10.469s-12.787,6.986-18.656,11.531
		c-3.506,2.689-4.167,7.713-1.478,11.219c1.062,1.383,2.546,2.381,4.228,2.844c8.617,2.395,16.588,2.15,22.375,2.721
		c5.787,0.576,8.227,1.344,10.063,3.873c0.01,0,0.021,0,0.031,0c2.796,3.846,2.8,12.916-1.094,16.781
		c-4.234,4.201-10.633,4.207-14.5,0.385c-3.207-3.039-8.271-2.904-11.311,0.303c-2.937,3.098-2.924,7.957,0.03,11.039
		c3.879,3.857,3.892,10.016-0.344,14.219c-4.22,4.189-10.626,4.17-14.5,0.385c-1.631-1.623-2.643-3.873-2.813-6.533
		c-0.485-7.553-0.753-13.324-1.281-23.188c-0.24-4.412-4.011-7.795-8.423-7.555c-2.524,0.137-4.835,1.459-6.233,3.566
		c-5.503,8.283-8.683,13.162-12.969,19.469c-1.523,2.24-3.61,3.742-5.906,4.377c-5.455,1.473-10.86-1.635-12.344-7.219
		c-1.486-5.59,1.68-11.061,7.125-12.531c4.274-1.137,6.817-5.523,5.68-9.799c-1.137-4.273-5.524-6.816-9.799-5.68
		c-0.013,0.004-0.025,0.006-0.038,0.01c-5.44,1.473-10.859-1.631-12.344-7.219c-1.36-5.115,3.262-13.074,7.781-15.094
		c2.124-0.943,6.939-0.207,13,2.438c6.061,2.637,11.713,6.691,19.375,7.811c4.372,0.641,8.435-2.385,9.076-6.758
		c0.237-1.621-0.029-3.277-0.763-4.742c-3.957-7.934-8.503-14.508-11.062-19.875s-3.191-8.5-1.719-12.25
		c0.882-2.246,3.136-5.031,5.781-6.656c2.645-1.627,5.308-2.175,8-1.472V1060.681z"/>
	<g>
		<path style="fill:#464C63;" d="M41.098,1180.368c0,0-2.332,3.967-4.594,9s-4.983,10.744-4.438,17.906
			c0.669,8.775,5.372,16.217,9.5,22.656s8.125,11.375,8.125,11.375l12.469-10.031c0,0-3.523-4.35-7.125-9.969s-6.83-13.014-7-15.25
			c-0.047-0.623,1.207-5.996,3.063-10.125c1.856-4.129,3.781-7.406,3.781-7.406L41.098,1180.368z"/>
		<path style="fill:#464C63;" d="M40.129,1198.555c-4.418-0.053-8.042,3.488-8.094,7.906c-0.003,0.271,0.007,0.543,0.032,0.814
			c0.669,8.775,5.372,16.217,9.5,22.656s8.125,11.375,8.125,11.375c2.77,3.443,7.807,3.988,11.25,1.219
			c3.443-2.77,3.989-7.807,1.219-11.25l0,0c0,0-3.523-4.35-7.125-9.969s-6.83-13.014-7-15.25c-0.262-4.186-3.712-7.459-7.906-7.5
			V1198.555z"/>
	</g>
	<path style="fill:#31AF66;" d="M61.878,1060.536c-1.344,0.24-2.678,0.784-4,1.6c-2.645,1.628-4.899,4.476-5.781,6.72
		c-1.472,3.748-0.784,6.818,1.781,12.188c2.56,5.367,7.011,12.004,10.968,19.938c1.952,3.965,0.32,8.76-3.644,10.713
		c-0.455,0.223-0.93,0.402-1.418,0.537c0.32,0,0.608,0.176,0.944,0.225c4.379,0.594,8.409-2.475,9.003-6.854
		c0.214-1.578-0.048-3.186-0.753-4.615c-3.957-7.934-8.408-14.57-10.968-19.938c-2.56-5.369-3.253-8.438-1.781-12.188
		c0.88-2.244,3.136-5.092,5.781-6.72c1.184-0.72,2.368-1.168,3.562-1.44c-1.232-0.272-2.461-0.368-3.686-0.16L61.878,1060.536z
		 M98.19,1069.975c-4.291,0.545-7.872,3.508-9,7.623c-0.767,2.715-2.903,4.826-5.626,5.563c4.222,1.107,8.554-1.365,9.75-5.563
		c1.056-3.881,4.349-6.633,8.314-7.404c-1.168-0.191-2.338-0.367-3.438-0.225L98.19,1069.975z M29.252,1102.069
		c-2.224-0.4-3.97-0.385-5.03,0.16c-4.52,2.021-9.141,10.01-7.782,15.127c1.424,5.383,6.461,8.311,11.688,7.217
		c-3.536-0.752-6.523-3.305-7.563-7.217c-1.36-5.117,3.262-13.104,7.782-15.127c0.24-0.16,0.816,0,1.12,0c0-0.012-0.16,0-0.224,0
		L29.252,1102.069z M34.721,1124.225c-0.633,0.012-1.262,0.098-1.875,0.256c4.292,1.102,6.879,5.473,5.778,9.766
		c-0.713,2.777-2.855,4.965-5.618,5.734c-5.445,1.473-8.704,6.912-7.218,12.5c1.44,5.398,6.603,8.506,11.875,7.377
		c-3.621-0.752-6.701-3.428-7.75-7.377c-1.488-5.588,1.773-11.029,7.218-12.5c4.269-1.186,6.768-5.609,5.582-9.879
		c-0.987-3.553-4.27-5.975-7.957-5.871L34.721,1124.225z M67.878,1132.381c-0.708,0.002-1.412,0.1-2.094,0.287
		c3.315,0.877,5.703,3.768,5.938,7.188c0.528,9.861,0.672,15.727,1.152,23.279c0.176,2.658,1.216,4.844,2.843,6.469
		c2.402,2.367,5.768,3.092,9,2.438c-1.79-0.385-3.51-1.088-4.875-2.438c-1.63-1.625-2.674-3.811-2.843-6.469
		c-0.48-7.553-0.624-13.42-1.152-23.279c-0.28-4.197-3.762-7.461-7.968-7.469V1132.381z M100.127,1141.319
		c-0.613,0.021-1.221,0.111-1.813,0.271c1.321,0.367,2.527,1.066,3.501,2.031c2.406,2.381,5.789,3.076,9.03,2.406
		c-1.802-0.385-3.534-1.057-4.906-2.406c-1.545-1.525-3.642-2.361-5.813-2.313L100.127,1141.319z"/>
	<g>
		<path style="fill:#AEBB31;" d="M54.284,1268.35c-12.395,0-22.363,9.924-22.344,22.314l0.16,28.844
			c2.778,1.52,8.4,4.703,19.157,9.438c13.072,5.756,29.331,11.287,38.718,11.469c1.776,0,3.565-0.271,5.344-0.496
			c-9.584-1.232-23.286-5.908-34.782-10.969c-10.757-4.734-16.378-7.924-19.155-9.438l-0.16-28.844
			c0-12.389,9.947-22.314,22.342-22.314L54.284,1268.35z M174.222,1316.412c-1.6,0-3.051,0.336-4.594,0.465
			c13.682,1.199,25.558,7.041,36.405,12.406c12.094,5.979,22.923,11.125,33.907,11.125c1.552,0,3.104-0.305,4.656-0.496
			c-9.426-1.168-18.888-5.486-29.282-10.625C203.222,1323.307,189.979,1316.412,174.222,1316.412L174.222,1316.412z
			 M324.347,1316.412c-1.627,0-3.112,0.336-4.688,0.465c13.782,1.184,25.766,7.1,36.626,12.531
			c12.072,6.035,22.898,11.244,33.781,11c1.136,0,2.627-0.336,3.938-0.496c-9.115-1.184-18.342-5.453-28.438-10.5
			C353.491,1323.373,340.158,1316.412,324.347,1316.412z"/>
		<path style="fill:#74BD45;" d="M164.94,1332.475c-10.93,0-21.885,5.283-34,11.344c-10.717,5.361-22.533,11.008-36.062,12.094
			c1.328,0.16,2.706,0.416,4,0.432c15.85,0.305,29.229-6.469,41.344-12.531c10.411-5.207,19.957-9.643,29.374-10.844
			c-1.552-0.191-3.101-0.496-4.656-0.496V1332.475z M315.065,1332.475c-10.984,0-21.938,5.146-34.032,11.127
			c-10.854,5.369-22.741,11.109-36.437,12.279c1.552,0.16,3.019,0.465,4.626,0.465c15.757,0,29-6.768,41.093-12.748
			c10.389-5.137,19.928-9.453,29.376-10.625c-1.536-0.191-3.088-0.496-4.626-0.496V1332.475z M39.971,1341.321v119.094h9.282
			v-115.063c-1.456-0.623-3.12-1.137-4.531-1.748c-1.882-0.832-3.002-1.473-4.75-2.281V1341.321z M440.033,1341.321
			c-1.734,0.801-2.851,1.424-4.718,2.25c-12.592,5.545-27.437,11.096-40.906,12.313c1.765,0.16,3.451,0.48,5.282,0.432
			c12.958-0.271,27.462-5.547,40.342-11L440.033,1341.321z"/>
	</g>
</g>
</svg>